<svg xmlns="http://www.w3.org/2000/svg" viewBox="0 0 1502.22 476.17"><defs><style>.cls-1{fill:#423fae;}.cls-2{fill:#5257df;}</style></defs><title>Asset 1</title><g id="Layer_2" data-name="Layer 2"><g id="Layer_1-2" data-name="Layer 1"><path class="cls-1" d="M182.54,175.78h-3.43a17.83,17.83,0,0,1-17.83-17.83l.15-43.36c0-14.65-20.52-18-25.08-4l-17.33,53a17.83,17.83,0,0,1-16.93,12.23H95.52a17.83,17.83,0,0,1-16.9-12.19l-18-54.34C56,95.37,35.46,98.72,35.51,113.34l.15,44.58a17.83,17.83,0,0,1-17.83,17.83h0A17.83,17.83,0,0,1,0,157.92V17.83A17.83,17.83,0,0,1,17.83,0H45.12A17.83,17.83,0,0,1,62,12.28L90.11,98.35a10.81,10.81,0,0,0,20.5.11l29.11-86.35A17.83,17.83,0,0,1,156.63,0h25.92a17.83,17.83,0,0,1,17.83,17.83V158A17.83,17.83,0,0,1,182.54,175.78Z"/><path class="cls-1" d="M791.72,175.78h-3.43a17.83,17.83,0,0,1-17.83-17.83l.15-43.36c0-14.65-20.52-18-25.08-4l-17.33,53a17.83,17.83,0,0,1-16.91,12.23h-6.61a17.83,17.83,0,0,1-16.9-12.19l-18-54.34c-4.61-13.87-25.11-10.52-25.06,4.1l.15,44.58A17.83,17.83,0,0,1,627,175.75h0a17.83,17.83,0,0,1-17.83-17.83V17.83A17.83,17.83,0,0,1,627,0h27.35a17.83,17.83,0,0,1,16.93,12.28l28.06,86.07a10.81,10.81,0,0,0,20.5.11l29.09-86.35A17.83,17.83,0,0,1,765.76,0h26a17.83,17.83,0,0,1,17.83,17.83V158A17.83,17.83,0,0,1,791.72,175.78Z"/><path class="cls-1" d="M371.17,175.78H364A16.73,16.73,0,0,1,348,164.14L343,148.29A16.73,16.73,0,0,0,327,136.7H289A16.73,16.73,0,0,0,273,148.38l-5,15.74a16.73,16.73,0,0,1-15.95,11.68h-6.8a16.73,16.73,0,0,1-15.72-22.46L281.38,11A16.73,16.73,0,0,1,297.13,0h23.43a16.73,16.73,0,0,1,15.76,11.12l50.62,142.31a16.73,16.73,0,0,1-15.76,22.34ZM323.92,84.86h0c-4.64-15.93-27.14-16.12-32-.27h0a16.73,16.73,0,0,0,16,21.67h0a16.73,16.73,0,0,0,16.06-21.41Z"/><path class="cls-1" d="M549.14,175.78H549A19.81,19.81,0,0,1,529.21,156V124a19.81,19.81,0,0,0-19.81-19.81H476.2A19.81,19.81,0,0,0,456.39,124v32a19.81,19.81,0,0,1-19.81,19.81h0A19.81,19.81,0,0,1,416.77,156V19.81A19.81,19.81,0,0,1,436.58,0h0a19.81,19.81,0,0,1,19.81,19.81V50.32A19.81,19.81,0,0,0,476.2,70.13h33.21a19.81,19.81,0,0,0,19.81-19.81V19.81A19.81,19.81,0,0,1,549,0h.12A19.81,19.81,0,0,1,569,19.81V156a19.81,19.81,0,0,1-19.82,19.8Z"/><path class="cls-1" d="M992.67,99.65q0,79.19-73.79,79.19-71.59,0-71.59-77.34V19.81A19.81,19.81,0,0,1,867.11,0h.12A19.81,19.81,0,0,1,887,19.81V102q0,42.65,33.34,42.65,32.69,0,32.69-41.19V19.81A19.81,19.81,0,0,1,972.88,0h0a19.81,19.81,0,0,1,19.81,19.81Z"/><path class="cls-1" d="M1167.46,175.78h-42.9q-42.53,0-68.09-24.52t-25.56-65.58Q1030.92,0,1124.56,0h42.9a19.37,19.37,0,0,1,19.37,19.37h0v137a19.37,19.37,0,0,1-19.37,19.37ZM1127.84,32.24h0q-26.23,0-40.75,14.4t-14.5,39.53q0,26.6,14.65,42t40.39,15.41h.25a19.37,19.37,0,0,0,19.37-19.37h0V51.61a19.37,19.37,0,0,0-19.36-19.38h0Z"/><path class="cls-1" d="M1359.3,99.65q0,79.19-73.79,79.19-71.59,0-71.59-77.34V19.81A19.81,19.81,0,0,1,1233.73,0h.12a19.81,19.81,0,0,1,19.81,19.81V102q0,42.65,33.34,42.65,32.69,0,32.69-41.19V19.81A19.81,19.81,0,0,1,1339.5,0h0a19.81,19.81,0,0,1,19.81,19.81Z"/><path class="cls-1" d="M1397.54,159.72h0a16.06,16.06,0,0,1,16-16.09h33a16.06,16.06,0,0,0,16.06-16.06V16.06A16.06,16.06,0,0,1,1478.68,0h7.49a16.06,16.06,0,0,1,16.06,16.06V159.69a16.06,16.06,0,0,1-16.06,16.06h-72.58A16.06,16.06,0,0,1,1397.54,159.72Z"/><path class="cls-1" d="M790.37,385.4h-.12a19.81,19.81,0,0,1-19.81-19.81v-32a19.81,19.81,0,0,0-19.81-19.81H717.43a19.81,19.81,0,0,0-19.81,19.81v32a19.81,19.81,0,0,1-19.81,19.81h0A19.81,19.81,0,0,1,658,365.59V229.42a19.81,19.81,0,0,1,19.81-19.81h0a19.81,19.81,0,0,1,19.81,19.81v30.52a19.81,19.81,0,0,0,19.81,19.81h33.21a19.81,19.81,0,0,0,19.81-19.81V229.42a19.81,19.81,0,0,1,19.81-19.81h.12a19.81,19.81,0,0,1,19.81,19.81V365.6a19.81,19.81,0,0,1-19.82,19.8Z"/><path class="cls-1" d="M981.23,385.4H974a16.73,16.73,0,0,1-15.94-11.64L953,357.91a16.73,16.73,0,0,0-15.94-11.64H899a16.73,16.73,0,0,0-15.95,11.68l-5,15.74a16.73,16.73,0,0,1-15.95,11.68h-6.76a16.73,16.73,0,0,1-15.76-22.43l51.81-142.31a16.73,16.73,0,0,1,15.72-11h23.43a16.73,16.73,0,0,1,15.76,11.12L997,363.06a16.73,16.73,0,0,1-15.76,22.34Zm-47.55-91.13h0c-4.83-15.85-27.33-15.79-32,.12h0a16.73,16.73,0,0,0,16,21.49h0a16.73,16.73,0,0,0,16-21.57Z"/><path class="cls-1" d="M1082.19,394l-15.56-15.56a6.67,6.67,0,0,1,3-11.18,73.23,73.23,0,0,0,13.7-4.87,74.46,74.46,0,0,0,21.06-14.71,55.92,55.92,0,0,0,8.28-10.18,30.56,30.56,0,0,0,4-9.23,16.29,16.29,0,0,0,0-7.92,14.06,14.06,0,0,0-3.68-6.28,15.23,15.23,0,0,0-8.58-4.42,31.7,31.7,0,0,0-11,.39,84.31,84.31,0,0,0-13.21,3.85q-7.19,2.68-15.25,6.06-20.62,8.5-36.53,6.93t-28.3-14q-9.71-9.71-12.79-20.58a46.85,46.85,0,0,1-.86-22.1A67.36,67.36,0,0,1,995.33,248a113.05,113.05,0,0,1,16.6-20.8,159.48,159.48,0,0,1,18.31-16.1,100.11,100.11,0,0,1,13-8.11,6.66,6.66,0,0,1,7.75,1.25l14.5,14.5a6.7,6.7,0,0,1-2.45,11H1063a76.52,76.52,0,0,0-10.31,4.85,81.87,81.87,0,0,0-9.36,6.15,77.65,77.65,0,0,0-7.85,6.81,53.91,53.91,0,0,0-7.76,9.58,31.42,31.42,0,0,0-4,9.14,18,18,0,0,0-.22,8.1,13.21,13.21,0,0,0,3.68,6.63,13.87,13.87,0,0,0,7.24,4,26.61,26.61,0,0,0,9.36,0,69.8,69.8,0,0,0,11.7-3q6.46-2.21,14.17-5.42a154.21,154.21,0,0,1,20-6.76,67.36,67.36,0,0,1,18.12-2.26,43.74,43.74,0,0,1,16.6,3.6,50.46,50.46,0,0,1,15.47,11q10.4,10.4,13.52,21.41a45.3,45.3,0,0,1,.73,22.15,65.6,65.6,0,0,1-9.45,22,128.67,128.67,0,0,1-17,20.8,148.89,148.89,0,0,1-21.19,17.72,88.6,88.6,0,0,1-17,9.29A6.67,6.67,0,0,1,1082.19,394Z"/><path class="cls-1" d="M1298.45,385.4h-7.22a16.73,16.73,0,0,1-15.94-11.64l-5.06-15.85a16.73,16.73,0,0,0-15.94-11.64h-38a16.73,16.73,0,0,0-15.95,11.68l-5,15.74a16.73,16.73,0,0,1-15.95,11.68h-6.76a16.73,16.73,0,0,1-15.72-22.46l51.81-142.31a16.73,16.73,0,0,1,15.67-11h23.43a16.73,16.73,0,0,1,15.76,11.12l50.62,142.31a16.73,16.73,0,0,1-15.75,22.34Zm-47.55-91.13h0c-4.83-15.85-27.33-15.79-32,.12h0a16.73,16.73,0,0,0,16,21.49h0a16.73,16.73,0,0,0,16-21.57Z"/><path class="cls-1" d="M1483.6,385.4h-11.27a18.59,18.59,0,0,1-15.57-8.42c-10.79-16.49-35.22-53.91-53.49-81.95-6.55-10.07-22.2-5.4-22.15,6.62l.26,65.06a18.61,18.61,0,0,1-18.53,18.69h-.16a18.61,18.61,0,0,1-18.61-18.61h0V228.25a18.61,18.61,0,0,1,18.61-18.61h13.95a18.61,18.61,0,0,1,15.6,8.45l51.07,78.39c6.57,10.08,22.24,5.36,22.15-6.68l-.5-61.41a18.61,18.61,0,0,1,18.45-18.77h.16a18.61,18.61,0,0,1,18.61,18.61h0V366.77A18.61,18.61,0,0,1,1483.6,385.4Z"/><circle class="cls-2" cx="240.75" cy="245.34" r="35.72"/><circle class="cls-2" cx="416.42" cy="245.34" r="35.72"/><path class="cls-1" d="M328.58,476.17h0a196.05,196.05,0,0,1-98.48-26.33,194.08,194.08,0,0,1-74.59-79,21.55,21.55,0,0,1,37.83-20.66q.23.42.44.85c26.59,51.35,77,82,134.81,82s108.22-30.66,134.81-82a21.55,21.55,0,0,1,38.72,19q-.21.43-.44.85a194.08,194.08,0,0,1-74.6,79A196.05,196.05,0,0,1,328.58,476.17Z"/></g></g></svg>