<?xml version="1.0" standalone="no"?>
<!DOCTYPE svg PUBLIC "-//W3C//DTD SVG 20010904//EN"
 "http://www.w3.org/TR/2001/REC-SVG-20010904/DTD/svg10.dtd">
<svg version="1.0" xmlns="http://www.w3.org/2000/svg"
 width="512.000000pt" height="512.000000pt" viewBox="0 0 512.000000 512.000000"
 preserveAspectRatio="xMidYMid meet">
<metadata>
Created by potrace 1.11, written by Peter Selinger 2001-2013
</metadata>
<g transform="translate(0.000000,512.000000) scale(0.100000,-0.100000)"
fill="#000000" stroke="none">
<path d="M4840 4680 c-68 -12 -159 -49 -215 -88 -67 -46 -149 -127 -171 -168
-29 -54 -33 -48 -49 86 -15 122 -18 131 -43 150 -51 40 -113 9 -115 -57 0 -36
9 -138 18 -181 2 -11 6 -37 9 -58 4 -22 9 -55 12 -74 9 -56 64 -333 70 -354 6
-16 1 -16 -42 7 -239 127 -520 106 -696 -51 -58 -53 -62 -85 -20 -153 57 -89
150 -167 255 -213 171 -76 395 -68 545 19 30 17 44 21 47 12 2 -7 18 -66 35
-132 26 -97 99 -358 141 -498 l8 -28 -32 20 c-18 10 -72 43 -122 73 -80 48
-94 61 -123 114 -46 81 -93 127 -171 165 -97 48 -185 51 -384 14 -78 -15 -220
-84 -307 -149 -30 -22 -60 -39 -67 -38 -7 2 -106 48 -220 103 -114 56 -266
129 -338 164 -71 34 -202 97 -290 140 -88 43 -227 110 -310 150 -228 110 -440
213 -650 315 -372 181 -436 210 -456 210 -11 0 -31 -11 -44 -25 -20 -19 -25
-34 -25 -72 0 -114 47 -340 95 -462 13 -36 23 -66 22 -68 -2 -2 -26 6 -53 16
-27 11 -128 48 -224 81 -96 34 -184 65 -195 70 -11 5 -85 32 -165 60 -80 28
-219 78 -309 111 -90 32 -176 59 -192 59 -31 0 -69 -40 -69 -72 0 -30 64 -189
121 -300 95 -184 197 -328 338 -473 54 -56 83 -95 96 -130 133 -361 385 -629
685 -728 68 -22 94 -28 195 -43 17 -2 40 -17 53 -32 156 -185 284 -273 442
-305 l62 -13 -93 -44 c-52 -24 -96 -44 -99 -45 -3 0 -15 -4 -27 -9 -16 -5 -31
-1 -52 15 -35 26 -50 23 -154 -25 -159 -74 -216 -100 -297 -136 -47 -21 -123
-55 -170 -77 -47 -22 -125 -57 -175 -79 -193 -85 -233 -181 -175 -427 63 -272
236 -469 480 -547 142 -45 339 -62 419 -35 87 29 112 64 265 372 l140 281 30
-10 c17 -5 38 -11 46 -13 8 -1 33 -8 55 -14 42 -11 91 -20 140 -27 17 -2 53
-6 80 -10 59 -8 258 -7 312 1 124 18 198 37 296 76 155 61 273 136 391 248 69
67 177 192 211 246 10 16 22 34 27 40 17 20 81 132 123 215 53 106 123 284
165 417 44 143 93 205 201 252 24 11 64 34 87 51 38 27 87 43 177 55 11 1 61
10 110 18 50 9 110 19 135 22 24 4 47 8 51 11 3 2 32 -76 64 -173 61 -186 83
-223 130 -223 14 0 37 11 51 25 31 31 29 49 -20 190 -103 301 -328 1075 -361
1245 -2 8 -8 33 -13 55 -6 22 -13 51 -16 65 -2 14 -11 53 -19 88 -9 34 -12 62
-9 62 108 6 157 12 202 27 148 50 286 163 352 290 44 83 57 127 64 218 5 61 4
73 -15 97 -34 42 -143 58 -261 38z"/>
</g>
</svg>
